<svg width="12" height="44" viewBox="0 0 12 44" fill="none" xmlns="http://www.w3.org/2000/svg">
<path fill="currentColor" d="M6.65016 43.7422L11.1733 40.4652C11.3957 40.304 11.4465 39.9936 11.2869 39.7699L10.7178 38.972C10.5566 38.7461 10.2421 38.6946 10.0174 38.8575L7.0602 41L7.0602 1.24219C7.0602 0.966045 6.83634 0.742187 6.5602 0.742187L5.59019 0.742187C5.31405 0.742187 5.09019 0.966044 5.09019 1.24219L5.09019 41L2.13302 38.8575C1.90824 38.6946 1.59383 38.7461 1.43263 38.972L0.863441 39.7699C0.703905 39.9936 0.754672 40.304 0.977132 40.4652L5.50022 43.7422L6.65016 43.7422Z"/>
</svg>
