<svg width="12" height="44" viewBox="0 0 12 44" fill="none" xmlns="http://www.w3.org/2000/svg">
<path fill="currentColor" d="M5.50022 0.742187L0.977132 4.01919C0.754672 4.18036 0.703905 4.49082 0.863441 4.71446L1.43262 5.51234C1.59383 5.73832 1.90824 5.78973 2.13302 5.62687L5.09019 3.48439L5.09019 43.2422C5.09019 43.5183 5.31405 43.7422 5.59019 43.7422L6.5602 43.7422C6.83634 43.7422 7.0602 43.5183 7.0602 43.2422L7.0602 3.48439L10.0174 5.62687C10.2421 5.78973 10.5566 5.73832 10.7178 5.51234L11.2869 4.71446C11.4465 4.49082 11.3957 4.18036 11.1733 4.01919L6.65017 0.742187L5.50022 0.742187Z"/>
</svg>
