<svg width="43" height="11" viewBox="0 0 43 11" fill="none" xmlns="http://www.w3.org/2000/svg">
<path fill="currentColor" d="M4.33909e-07 6.07497L3.277 10.5981C3.43818 10.8205 3.74863 10.8713 3.97227 10.7117L4.77016 10.1426C4.99613 9.98136 5.04754 9.66695 4.88469 9.44217L2.74221 6.485L42.5 6.48501C42.7761 6.48501 43 6.26115 43 5.98501L43 5.01499C43 4.73885 42.7761 4.51499 42.5 4.51499L2.74221 4.51499L4.88469 1.55782C5.04754 1.33304 4.99613 1.01863 4.77016 0.857428L3.97228 0.288244C3.74864 0.128708 3.43818 0.179475 3.277 0.401935L5.35222e-07 4.92502L4.33909e-07 6.07497Z"/>
</svg>
