<svg width="24" height="24" viewBox="0 0 24 24" fill="none" xmlns="http://www.w3.org/2000/svg">
<g clip-path="url(#clip0_18_661)">
<path d="M12 0C12.5523 0 13 0.447715 13 1V3C13 3.55228 12.5523 4 12 4C11.4477 4 11 3.55228 11 3V1C11 0.447715 11.4477 0 12 0Z" fill="currentColor"/>
<path fill-rule="evenodd" clip-rule="evenodd" d="M6 12C6 8.68629 8.68629 6 12 6C15.3137 6 18 8.68629 18 12C18 15.3137 15.3137 18 12 18C8.68629 18 6 15.3137 6 12ZM12 8C9.79086 8 8 9.79086 8 12C8 14.2091 9.79086 16 12 16C14.2091 16 16 14.2091 16 12C16 9.79086 14.2091 8 12 8Z" fill="currentColor"/>
<path d="M13 21C13 20.4477 12.5523 20 12 20C11.4477 20 11 20.4477 11 21V23C11 23.5523 11.4477 24 12 24C12.5523 24 13 23.5523 13 23V21Z" fill="currentColor"/>
<path d="M3.51286 3.51262C3.90339 3.1221 4.53655 3.1221 4.92708 3.51262L6.34708 4.93262C6.7376 5.32314 6.7376 5.95631 6.34708 6.34683C5.95655 6.73736 5.32339 6.73736 4.93286 6.34683L3.51286 4.92683C3.12234 4.53631 3.12234 3.90314 3.51286 3.51262Z" fill="currentColor"/>
<path d="M19.0672 17.6532C18.6767 17.2627 18.0435 17.2627 17.653 17.6532C17.2625 18.0438 17.2625 18.6769 17.653 19.0675L19.073 20.4875C19.4635 20.878 20.0967 20.878 20.4872 20.4875C20.8777 20.0969 20.8777 19.4638 20.4872 19.0732L19.0672 17.6532Z" fill="currentColor"/>
<path d="M0 12C0 11.4477 0.447715 11 1 11H3C3.55228 11 4 11.4477 4 12C4 12.5523 3.55228 13 3 13H1C0.447715 13 0 12.5523 0 12Z" fill="currentColor"/>
<path d="M21 11C20.4477 11 20 11.4477 20 12C20 12.5523 20.4477 13 21 13H23C23.5523 13 24 12.5523 24 12C24 11.4477 23.5523 11 23 11H21Z" fill="currentColor"/>
<path d="M6.34708 17.6532C6.7376 18.0438 6.7376 18.6769 6.34708 19.0675L4.92708 20.4875C4.53655 20.878 3.90339 20.878 3.51286 20.4875C3.12234 20.0969 3.12234 19.4638 3.51286 19.0732L4.93286 17.6532C5.32339 17.2627 5.95655 17.2627 6.34708 17.6532Z" fill="currentColor"/>
<path d="M20.4872 4.92683C20.8777 4.53631 20.8777 3.90314 20.4872 3.51262C20.0967 3.1221 19.4635 3.1221 19.073 3.51262L17.653 4.93262C17.2625 5.32314 17.2625 5.95631 17.653 6.34683C18.0435 6.73736 18.6767 6.73736 19.0672 6.34683L20.4872 4.92683Z" fill="currentColor"/>
</g>
<defs>
<clipPath id="clip0_18_661">
<rect width="24" height="24" fill="currentColor"/>
</clipPath>
</defs>
</svg>
